<?xml version="1.0" standalone="no"?><!DOCTYPE svg PUBLIC "-//W3C//DTD SVG 1.1//EN" "http://www.w3.org/Graphics/SVG/1.1/DTD/svg11.dtd"><svg t="1601274003205" class="icon" viewBox="0 0 1075 1024" version="1.1" xmlns="http://www.w3.org/2000/svg" p-id="740" xmlns:xlink="http://www.w3.org/1999/xlink" width="209.9609375" height="200"><defs><style type="text/css"></style></defs><path d="M599.04 25.6L1024 440.32c25.6 23.04 33.28 61.44 20.48 94.72-12.8 30.72-46.08 53.76-79.36 53.76h-79.36v204.8c0 128-102.4 230.4-227.84 230.4h-238.08c-125.44 0-227.84-104.96-227.84-230.4v-204.8H110.08c-35.84 0-66.56-20.48-79.36-53.76s-5.12-71.68 20.48-94.72L476.16 23.04c33.28-30.72 89.6-30.72 122.88 2.56zM537.6 524.8c-89.6 0-161.28 71.68-161.28 161.28s71.68 161.28 161.28 161.28 161.28-71.68 161.28-161.28-71.68-161.28-161.28-161.28z" fill="#8a8a8a" p-id="741"></path></svg>