<?xml version="1.0" standalone="no"?><!DOCTYPE svg PUBLIC "-//W3C//DTD SVG 1.1//EN" "http://www.w3.org/Graphics/SVG/1.1/DTD/svg11.dtd"><svg t="1601274039323" class="icon" viewBox="0 0 1024 1024" version="1.1" xmlns="http://www.w3.org/2000/svg" p-id="1356" xmlns:xlink="http://www.w3.org/1999/xlink" width="200" height="200"><defs><style type="text/css"></style></defs><path d="M208.289185 400.592593c-22.793481-104.068741-36.427852-155.45837-40.713481-172.316445-5.973333-21.485037-15.909926-29.221926-23.04-29.221926h-104.865185C28.178963 199.054222 18.962963 190.445037 18.962963 179.920593 18.962963 169.396148 28.197926 151.703704 39.651556 151.703704h104.865185c10.998519 0 58.368 1.099852 73.557333 55.163259 2.37037 9.272889 7.205926 30.928593 13.539556 60.188444H861.980444c4.968296 0.436148 30.113185 3.546074 44.013037 23.722667 6.181926 9.02637 12.136296 24.689778 5.082075 48.090074-12.894815 42.17363-65.384296 322.332444-65.934223 324.152889-4.968296 19.000889-28.027259 56.035556-80.213333 56.035556h-40.77037a22.945185 22.945185 0 0 1-2.275556 0.113777H330.903704c-50.270815 0-62.767407-25.353481-65.820445-40.523851l-5.271703-26.642963a11544.424296 11544.424296 0 0 0-40.770371-201.633186H576.474074v-49.777777H208.289185z m162.322963 548.446814c-47.464296 0-86.167704-38.4-86.167704-85.769481C284.444444 815.900444 323.128889 777.481481 370.612148 777.481481c47.483259 0 86.053926 38.418963 86.053926 85.788445s-38.570667 85.769481-86.053926 85.769481z m379.259259 0c-47.464296 0-86.167704-38.4-86.167703-85.769481C663.703704 815.900444 702.388148 777.481481 749.871407 777.481481c47.483259 0 86.167704 38.418963 86.167704 85.788445s-38.684444 85.769481-86.167704 85.769481z" fill="#FF873E" p-id="1357"></path></svg>